<svg width="130" height="134" viewBox="0 0 130 134" fill="none" xmlns="http://www.w3.org/2000/svg">
<path d="M122.66 76.2205C124.258 77.8187 126.962 77.8187 128.683 76.2205C130.282 74.6224 130.282 71.9178 128.683 70.1967C127.085 68.5985 124.381 68.5985 122.66 70.1967C121.061 71.7948 121.061 74.4994 122.66 76.2205Z" fill="#3E54EB" fill-opacity="0.1"/>
<path d="M112.087 63.6809C114.395 63.6809 116.267 61.8096 116.267 59.5011C116.267 57.1927 114.395 55.3213 112.087 55.3213C109.778 55.3213 107.907 57.1927 107.907 59.5011C107.907 61.8096 109.778 63.6809 112.087 63.6809Z" fill="#3E54EB" fill-opacity="0.1"/>
<path d="M95.3676 48.9285C96.9657 50.5267 99.6703 50.5267 101.391 48.9285C102.99 47.3304 102.99 44.6258 101.391 42.9047C99.7932 41.3065 97.0887 41.3065 95.3676 42.9047C93.7694 44.5028 93.7694 47.2074 95.3676 48.9285Z" fill="#3E54EB" fill-opacity="0.1"/>
<path d="M81.7221 35.283C83.3202 36.8812 86.0248 36.8812 87.7459 35.283C89.3441 33.6848 89.3441 30.9803 87.7459 29.2592C86.1478 27.661 83.4432 27.661 81.7221 29.2592C80.1239 30.8573 80.1239 33.5619 81.7221 35.283Z" fill="#3E54EB" fill-opacity="0.1"/>
<path d="M74.0999 15.6127C72.5017 14.0145 69.7972 14.0145 68.0761 15.6127C66.4779 17.2108 66.4779 19.9154 68.0761 21.6365C69.6742 23.2347 72.3788 23.2347 74.0999 21.6365C75.6981 19.9154 75.6981 17.2108 74.0999 15.6127Z" fill="#3E54EB" fill-opacity="0.1"/>
<path d="M108.521 90.3572C110.12 91.9554 112.824 91.9554 114.545 90.3572C116.143 88.7591 116.143 86.0545 114.545 84.3334C112.947 82.7352 110.242 82.7352 108.521 84.3334C106.923 85.9316 106.923 88.6361 108.521 90.3572Z" fill="#3E54EB" fill-opacity="0.1"/>
<path d="M94.8754 76.7117C96.4735 78.3099 99.1781 78.3099 100.899 76.7117C102.497 75.1136 102.497 72.409 100.899 70.6879C99.3011 69.0897 96.5965 69.0897 94.8754 70.6879C93.2772 72.286 93.2772 74.9906 94.8754 76.7117Z" fill="#3E54EB" fill-opacity="0.1"/>
<path d="M81.2304 63.0662C82.8285 64.6644 85.5331 64.6644 87.2542 63.0662C88.8524 61.4681 88.8524 58.7635 87.2542 57.0424C85.656 55.4442 82.9515 55.4442 81.2304 57.0424C79.6322 58.6405 79.6322 61.3451 81.2304 63.0662Z" fill="#3E54EB" fill-opacity="0.1"/>
<path d="M67.5844 49.4207C69.1825 51.0189 71.8871 51.0189 73.6082 49.4207C75.2064 47.8225 75.2064 45.118 73.6082 43.3969C72.0101 41.7987 69.3055 41.7987 67.5844 43.3969C65.9862 44.995 65.9862 47.6996 67.5844 49.4207Z" fill="#3E54EB" fill-opacity="0.1"/>
<path d="M56.8888 36.8811C59.1972 36.8811 61.0686 35.0097 61.0686 32.7013C61.0686 30.3929 59.1972 28.5215 56.8888 28.5215C54.5803 28.5215 52.709 30.3929 52.709 32.7013C52.709 35.0097 54.5803 36.8811 56.8888 36.8811Z" fill="#3E54EB" fill-opacity="0.1"/>
<path d="M94.3848 104.495C95.983 106.093 98.6875 106.093 100.409 104.495C102.007 102.897 102.007 100.192 100.409 98.4711C98.8105 96.8729 96.1059 96.8729 94.3848 98.4711C92.6637 100.069 92.7866 102.774 94.3848 104.495Z" fill="#3E54EB" fill-opacity="0.1"/>
<path d="M80.7382 90.8494C82.3363 92.4476 85.0409 92.4476 86.762 90.8494C88.3602 89.2513 88.3602 86.5467 86.762 84.8256C85.1639 83.2274 82.4593 83.2274 80.7382 84.8256C79.14 86.4237 79.14 89.1283 80.7382 90.8494Z" fill="#3E54EB" fill-opacity="0.1"/>
<path d="M67.0922 77.2039C68.6903 78.8021 71.3949 78.8021 73.116 77.2039C74.7142 75.6058 74.7142 72.9012 73.116 71.1801C71.5179 69.5819 68.8133 69.5819 67.0922 71.1801C65.494 72.7782 65.494 75.4828 67.0922 77.2039Z" fill="#3E54EB" fill-opacity="0.1"/>
<path d="M53.4467 63.5584C55.0448 65.1566 57.7494 65.1566 59.4705 63.5584C61.0687 61.9602 61.0687 59.2557 59.4705 57.5346C57.8724 55.9364 55.1678 55.9364 53.4467 57.5346C51.8485 59.1327 51.8485 61.8373 53.4467 63.5584Z" fill="#3E54EB" fill-opacity="0.1"/>
<path d="M45.8245 43.8881C44.2264 42.2899 41.5218 42.2899 39.8007 43.8881C38.2025 45.4862 38.2025 48.1908 39.8007 49.9119C41.3988 51.5101 44.1034 51.5101 45.8245 49.9119C47.4227 48.1908 47.4227 45.4862 45.8245 43.8881Z" fill="#3E54EB" fill-opacity="0.1"/>
<path d="M80.2467 118.633C81.8449 120.231 84.5495 120.231 86.2706 118.633C87.8687 117.034 87.8687 114.33 86.2706 112.609C84.6724 111.011 81.9678 111.011 80.2467 112.609C78.6486 114.33 78.6486 116.912 80.2467 118.633Z" fill="#3E54EB" fill-opacity="0.1"/>
<path d="M69.5516 106.093C71.8601 106.093 73.7314 104.222 73.7314 101.913C73.7314 99.6048 71.8601 97.7334 69.5516 97.7334C67.2432 97.7334 65.3718 99.6048 65.3718 101.913C65.3718 104.222 67.2432 106.093 69.5516 106.093Z" fill="#3E54EB" fill-opacity="0.1"/>
<path d="M55.9051 92.4475C58.2136 92.4475 60.085 90.5762 60.085 88.2677C60.085 85.9593 58.2136 84.0879 55.9051 84.0879C53.5967 84.0879 51.7253 85.9593 51.7253 88.2677C51.7253 90.5762 53.5967 92.4475 55.9051 92.4475Z" fill="#3E54EB" fill-opacity="0.1"/>
<path d="M39.3086 77.6961C40.9068 79.2943 43.6114 79.2943 45.3325 77.6961C46.9307 76.0979 46.9307 73.3934 45.3325 71.6723C43.7344 70.0741 41.0297 70.0741 39.3086 71.6723C37.5875 73.3934 37.5875 75.975 39.3086 77.6961Z" fill="#3E54EB" fill-opacity="0.1"/>
<path d="M31.6871 58.0258C30.0889 56.4276 27.3843 56.4276 25.6632 58.0258C24.0651 59.6239 24.0651 62.3285 25.6632 64.0496C27.2614 65.6478 29.966 65.6478 31.6871 64.0496C33.2852 62.3285 33.2852 59.7469 31.6871 58.0258Z" fill="#3E54EB" fill-opacity="0.1"/>
<path d="M69.0594 134C71.3679 134 73.2392 132.129 73.2392 129.82C73.2392 127.512 71.3679 125.641 69.0594 125.641C66.751 125.641 64.8796 127.512 64.8796 129.82C64.8796 132.129 66.751 134 69.0594 134Z" fill="#3E54EB" fill-opacity="0.1"/>
<path d="M58.4869 113.1C56.8887 111.502 54.1841 111.502 52.463 113.1C50.8649 114.698 50.8649 117.403 52.463 119.124C54.0612 120.722 56.7658 120.722 58.4869 119.124C60.085 117.403 60.085 114.821 58.4869 113.1Z" fill="#3E54EB" fill-opacity="0.1"/>
<path d="M41.7675 106.708C44.0759 106.708 45.9473 104.837 45.9473 102.528C45.9473 100.22 44.0759 98.3486 41.7675 98.3486C39.459 98.3486 37.5876 100.22 37.5876 102.528C37.5876 104.837 39.459 106.708 41.7675 106.708Z" fill="#3E54EB" fill-opacity="0.1"/>
<path d="M31.1954 85.809C29.5972 84.2108 26.8926 84.2108 25.1715 85.809C23.5734 87.4071 23.5734 90.1117 25.1715 91.8328C26.7697 93.431 29.4743 93.431 31.1954 91.8328C32.7936 90.1117 32.7936 87.5301 31.1954 85.809Z" fill="#3E54EB" fill-opacity="0.1"/>
<path d="M17.5494 72.1635C15.9512 70.5653 13.2466 70.5653 11.5255 72.1635C9.92736 73.7616 9.92736 76.4662 11.5255 78.1873C13.1237 79.7855 15.8283 79.7855 17.5494 78.1873C19.1475 76.4662 19.1475 73.8846 17.5494 72.1635Z" fill="#3E54EB" fill-opacity="0.1"/>
<path d="M115.406 62.9436C117.714 62.9436 119.586 61.0722 119.586 58.7638C119.586 56.4554 117.714 54.584 115.406 54.584C113.097 54.584 111.226 56.4554 111.226 58.7638C111.226 61.0722 113.097 62.9436 115.406 62.9436Z" fill="#3E54EB"/>
<path d="M98.8099 48.1912C100.408 49.7894 103.113 49.7894 104.834 48.1912C106.432 46.593 106.432 43.8885 104.834 42.1674C103.236 40.5692 100.531 40.5692 98.8099 42.1674C97.0888 43.7655 97.0888 46.4701 98.8099 48.1912Z" fill="#3E54EB"/>
<path d="M85.1639 34.5457C86.762 36.1439 89.4666 36.1439 91.1877 34.5457C92.7859 32.9476 92.7859 30.243 91.1877 28.5219C89.5895 26.9237 86.885 26.9237 85.1639 28.5219C83.4428 30.12 83.4428 32.8246 85.1639 34.5457Z" fill="#3E54EB"/>
<path d="M71.5181 20.8992C73.1163 22.4974 75.8209 22.4974 77.542 20.8992C79.1401 19.3011 79.1401 16.5965 77.542 14.8754C75.9438 13.2772 73.2392 13.2772 71.5181 14.8754C69.797 16.4735 69.797 19.1781 71.5181 20.8992Z" fill="#3E54EB"/>
<path d="M60.8224 8.35963C63.1308 8.35963 65.0022 6.48826 65.0022 4.17981C65.0022 1.87137 63.1308 0 60.8224 0C58.5139 0 56.6426 1.87137 56.6426 4.17981C56.6426 6.48826 58.5139 8.35963 60.8224 8.35963Z" fill="#3E54EB"/>
<path d="M98.3174 75.9734C99.9156 77.5716 102.62 77.5716 104.341 75.9734C105.939 74.3753 105.939 71.6707 104.341 69.9496C102.743 68.3514 100.039 68.3514 98.3174 69.9496C96.5963 71.5478 96.5963 74.2523 98.3174 75.9734Z" fill="#3E54EB"/>
<path d="M87.6224 63.4348C89.9309 63.4348 91.8022 61.5634 91.8022 59.255C91.8022 56.9466 89.9309 55.0752 87.6224 55.0752C85.314 55.0752 83.4426 56.9466 83.4426 59.255C83.4426 61.5634 85.314 63.4348 87.6224 63.4348Z" fill="#3E54EB"/>
<path d="M71.0259 48.6824C72.6241 50.2806 75.3287 50.2806 77.0498 48.6824C78.6479 47.0843 78.6479 44.3797 77.0498 42.6586C75.4516 41.0604 72.747 41.0604 71.0259 42.6586C69.3048 44.2567 69.3048 46.9613 71.0259 48.6824Z" fill="#3E54EB"/>
<path d="M57.3799 35.0369C58.9781 36.6351 61.6827 36.6351 63.4038 35.0369C65.0019 33.4388 65.0019 30.7342 63.4038 29.0131C61.8056 27.4149 59.101 27.4149 57.3799 29.0131C55.6588 30.6112 55.6588 33.3158 57.3799 35.0369Z" fill="#3E54EB"/>
<path d="M46.6852 22.4973C48.9936 22.4973 50.865 20.626 50.865 18.3175C50.865 16.0091 48.9936 14.1377 46.6852 14.1377C44.3767 14.1377 42.5054 16.0091 42.5054 18.3175C42.5054 20.626 44.3767 22.4973 46.6852 22.4973Z" fill="#3E54EB"/>
<path d="M84.057 90.1118C85.6552 91.7099 88.3598 91.7099 90.0809 90.1118C91.679 88.5136 91.679 85.809 90.0809 84.0879C88.4827 82.3668 85.7781 82.4898 84.057 84.0879C82.4589 85.6861 82.4589 88.3907 84.057 90.1118Z" fill="#3E54EB"/>
<path d="M73.4847 77.5725C75.7932 77.5725 77.6645 75.7011 77.6645 73.3927C77.6645 71.0842 75.7932 69.2129 73.4847 69.2129C71.1763 69.2129 69.3049 71.0842 69.3049 73.3927C69.3049 75.7011 71.1763 77.5725 73.4847 77.5725Z" fill="#3E54EB"/>
<path d="M56.7658 62.8211C58.3639 64.4193 61.0685 64.4193 62.7896 62.8211C64.3878 61.2229 64.3878 58.5184 62.7896 56.7973C61.1914 55.1991 58.4869 55.1991 56.7658 56.7973C55.1676 58.3954 55.1676 61.1 56.7658 62.8211Z" fill="#3E54EB"/>
<path d="M46.1932 50.2805C48.5017 50.2805 50.373 48.4092 50.373 46.1007C50.373 43.7923 48.5017 41.9209 46.1932 41.9209C43.8848 41.9209 42.0134 43.7923 42.0134 46.1007C42.0134 48.4092 43.8848 50.2805 46.1932 50.2805Z" fill="#3E54EB"/>
<path d="M35.4976 29.5043C33.8995 27.9061 31.1949 27.9061 29.4738 29.5043C27.8756 31.1025 27.8756 33.807 29.4738 35.5281C31.0719 37.1263 33.7765 37.1263 35.4976 35.5281C37.2187 33.807 37.2187 31.1025 35.4976 29.5043Z" fill="#3E54EB"/>
<path d="M69.9198 104.249C71.518 105.847 74.2226 105.847 75.9437 104.249C77.5418 102.651 77.5418 99.9461 75.9437 98.225C74.3455 96.6268 71.6409 96.6268 69.9198 98.225C68.3217 99.8232 68.3217 102.528 69.9198 104.249Z" fill="#3E54EB"/>
<path d="M59.347 91.7102C61.6555 91.7102 63.5268 89.8388 63.5268 87.5304C63.5268 85.2219 61.6555 83.3506 59.347 83.3506C57.0386 83.3506 55.1672 85.2219 55.1672 87.5304C55.1672 89.8388 57.0386 91.7102 59.347 91.7102Z" fill="#3E54EB"/>
<path d="M45.701 78.0647C48.0095 78.0647 49.8809 76.1933 49.8809 73.8849C49.8809 71.5764 48.0095 69.7051 45.701 69.7051C43.3926 69.7051 41.5212 71.5764 41.5212 73.8849C41.5212 76.1933 43.3926 78.0647 45.701 78.0647Z" fill="#3E54EB"/>
<path d="M28.9823 63.3123C30.5805 64.9105 33.2851 64.9105 35.0062 63.3123C36.6043 61.7142 36.6043 59.0096 35.0062 57.2885C33.408 55.6903 30.7034 55.6903 28.9823 57.2885C27.3842 58.8866 27.3842 61.5912 28.9823 63.3123Z" fill="#3E54EB"/>
<path d="M21.3601 43.642C19.7619 42.0438 17.0573 42.0438 15.3362 43.642C13.6151 45.2401 13.7381 47.9447 15.3362 49.6658C16.9344 51.3869 19.639 51.264 21.3601 49.6658C23.0812 47.9447 23.0812 45.2401 21.3601 43.642Z" fill="#3E54EB"/>
<path d="M61.806 118.387C63.4041 116.788 63.4041 114.084 61.806 112.363C60.2078 110.765 57.5032 110.765 55.7821 112.363C54.184 113.961 54.184 116.665 55.7821 118.387C57.5032 119.985 60.2078 119.985 61.806 118.387Z" fill="#3E54EB"/>
<path d="M45.2096 105.848C47.518 105.848 49.3894 103.977 49.3894 101.668C49.3894 99.3596 47.518 97.4883 45.2096 97.4883C42.9011 97.4883 41.0298 99.3596 41.0298 101.668C41.0298 103.977 42.9011 105.848 45.2096 105.848Z" fill="#3E54EB"/>
<path d="M34.5145 85.0717C32.9163 83.4735 30.2117 83.4735 28.4906 85.0717C26.8925 86.6698 26.8925 89.3744 28.4906 91.0955C30.0888 92.6937 32.7934 92.6937 34.5145 91.0955C36.2356 89.3744 36.2356 86.6698 34.5145 85.0717Z" fill="#3E54EB"/>
<path d="M20.8685 71.4262C19.2703 69.828 16.5657 69.828 14.8446 71.4262C13.2465 73.0243 13.2465 75.7289 14.8446 77.45C16.4428 79.0482 19.1474 79.0482 20.8685 77.45C22.5896 75.7289 22.5896 73.0243 20.8685 71.4262Z" fill="#3E54EB"/>
<path d="M7.2225 57.7797C5.62434 56.1815 2.91972 56.1815 1.19862 57.7797C-0.399541 59.3778 -0.399541 62.0824 1.19862 63.8035C2.79679 65.4017 5.5014 65.4017 7.2225 63.8035C8.9436 62.0824 8.9436 59.3778 7.2225 57.7797Z" fill="#3E54EB"/>
</svg>
