<svg xmlns="http://www.w3.org/2000/svg" width="104" height="201" fill="none"><path fill="#3E54EB" fill-opacity=".2" d="M103.155 62.726c0-2.252-1.906-4.159-4.159-4.159s-4.159 1.907-4.159 4.159c0 2.253 1.906 4.159 4.159 4.159s4.159-1.906 4.159-4.159ZM103.155 43.493c0-2.253-1.906-4.159-4.159-4.159s-4.159 1.906-4.159 4.159c0 2.252 1.906 4.158 4.159 4.158 2.253.173 4.159-1.733 4.159-4.158ZM103.155 24.432c0-2.252-1.906-4.159-4.159-4.159s-4.159 1.907-4.159 4.159c0 2.253 1.906 4.159 4.159 4.159s4.159-1.906 4.159-4.159ZM83.228 62.726c0-2.252-1.906-4.159-4.159-4.159-2.252 0-4.158 1.907-4.158 4.159 0 2.253 1.906 4.159 4.158 4.159 2.253 0 4.159-1.906 4.159-4.159ZM83.228 43.493c0-2.253-1.906-4.159-4.159-4.159-2.252 0-4.158 1.906-4.158 4.159 0 2.252 1.906 4.158 4.158 4.158 2.253 0 4.159-1.733 4.159-4.158ZM83.228 24.432c0-2.252-1.906-4.159-4.159-4.159-2.252 0-4.158 1.907-4.158 4.159 0 2.253 1.906 4.159 4.158 4.159 2.253 0 4.159-1.906 4.159-4.159ZM59.142 66.885a4.159 4.159 0 1 0 0-8.318 4.159 4.159 0 0 0 0 8.318ZM59.142 47.651a4.159 4.159 0 1 0 0-8.317 4.159 4.159 0 0 0 0 8.317ZM59.142 28.59a4.159 4.159 0 1 0 0-8.317 4.159 4.159 0 0 0 0 8.318ZM43.548 62.726c0-2.252-1.906-4.159-4.159-4.159-2.252 0-4.158 1.907-4.158 4.159 0 2.253 1.906 4.159 4.158 4.159 2.253 0 4.159-1.906 4.159-4.159ZM43.548 43.493c0-2.253-1.906-4.159-4.159-4.159-2.252 0-4.158 1.906-4.158 4.159 0 2.252 1.906 4.158 4.158 4.158 2.253 0 4.159-1.733 4.159-4.158ZM43.548 24.432c0-2.252-1.906-4.159-4.159-4.159-2.252 0-4.158 1.907-4.158 4.159 0 2.253 1.906 4.159 4.158 4.159 2.253 0 4.159-1.906 4.159-4.159ZM23.621 62.726c0-2.252-1.906-4.159-4.158-4.159-2.253 0-4.159 1.907-4.159 4.159 0 2.253 1.906 4.159 4.159 4.159 2.252 0 4.158-1.906 4.158-4.159ZM23.621 43.493c0-2.253-1.906-4.159-4.158-4.159-2.253 0-4.159 1.906-4.159 4.159 0 2.252 1.906 4.158 4.159 4.158 2.252.173 4.158-1.733 4.158-4.158ZM23.622 24.432c0-2.252-1.907-4.159-4.16-4.159-2.252 0-4.158 1.907-4.158 4.159 0 2.253 1.906 4.159 4.159 4.159 2.252 0 4.159-1.906 4.159-4.159ZM94.664 196.841c0 2.253 1.906 4.159 4.159 4.159 2.252 0 4.158-1.906 4.158-4.159 0-2.252-1.906-4.158-4.158-4.158-2.253 0-4.16 1.732-4.16 4.158ZM103.155 177.608c0-2.253-1.906-4.159-4.159-4.159s-4.159 1.906-4.159 4.159c0 2.252 1.906 4.158 4.159 4.158s4.159-1.732 4.159-4.158ZM103.155 158.547c0-2.252-1.906-4.158-4.159-4.158s-4.159 1.906-4.159 4.158c0 2.253 1.906 4.159 4.159 4.159s4.159-1.906 4.159-4.159ZM103.155 139.313c0-2.252-1.906-4.158-4.159-4.158s-4.159 1.906-4.159 4.158c0 2.253 1.906 4.159 4.159 4.159s4.159-1.733 4.159-4.159ZM103.155 120.253c0-2.252-1.906-4.158-4.159-4.158s-4.159 1.906-4.159 4.158c0 2.253 1.906 4.159 4.159 4.159s4.159-1.906 4.159-4.159ZM103.155 101.02c0-2.252-1.906-4.158-4.159-4.158s-4.159 1.906-4.159 4.158c0 2.253 1.906 4.159 4.159 4.159s4.159-1.906 4.159-4.159ZM103.155 81.787c0-2.253-1.906-4.16-4.159-4.16s-4.159 1.907-4.159 4.16c0 2.252 1.906 4.158 4.159 4.158 2.253.174 4.159-1.733 4.159-4.158ZM83.228 196.841c0-2.252-1.906-4.158-4.159-4.158-2.252 0-4.158 1.906-4.158 4.158 0 2.253 1.906 4.159 4.158 4.159 2.253 0 4.159-1.906 4.159-4.159ZM83.228 177.608c0-2.253-1.906-4.159-4.159-4.159-2.252 0-4.158 1.906-4.158 4.159 0 2.252 1.906 4.158 4.158 4.158 2.253 0 4.159-1.732 4.159-4.158ZM83.228 158.547c0-2.252-1.906-4.158-4.159-4.158-2.252 0-4.158 1.906-4.158 4.158 0 2.253 1.906 4.159 4.158 4.159 2.253 0 4.159-1.906 4.159-4.159ZM83.228 139.313c0-2.252-1.906-4.158-4.159-4.158-2.252 0-4.158 1.906-4.158 4.158 0 2.253 1.906 4.159 4.158 4.159 2.253 0 4.159-1.733 4.159-4.159ZM83.228 120.253c0-2.252-1.906-4.158-4.159-4.158-2.252 0-4.158 1.906-4.158 4.158 0 2.253 1.906 4.159 4.158 4.159 2.253 0 4.159-1.906 4.159-4.159ZM83.228 101.02c0-2.252-1.906-4.158-4.159-4.158-2.252 0-4.158 1.906-4.158 4.158 0 2.253 1.906 4.159 4.158 4.159 2.253 0 4.159-1.906 4.159-4.159ZM83.228 81.787c0-2.253-1.906-4.16-4.159-4.16-2.252 0-4.158 1.907-4.158 4.16 0 2.252 1.906 4.158 4.158 4.158 2.253 0 4.159-1.733 4.159-4.158ZM63.301 196.841c0-2.252-1.906-4.158-4.159-4.158-2.252 0-4.158 1.906-4.158 4.158 0 2.253 1.906 4.159 4.158 4.159 2.253 0 4.16-1.906 4.16-4.159ZM63.301 177.608c0-2.253-1.906-4.159-4.159-4.159-2.252 0-4.158 1.906-4.158 4.159 0 2.252 1.906 4.158 4.158 4.158 2.253 0 4.16-1.732 4.16-4.158ZM63.301 158.547c0-2.252-1.906-4.158-4.159-4.158-2.252 0-4.158 1.906-4.158 4.158 0 2.253 1.906 4.159 4.158 4.159 2.253 0 4.16-1.906 4.16-4.159ZM63.301 139.313c0-2.252-1.906-4.158-4.159-4.158-2.252 0-4.158 1.906-4.158 4.158 0 2.253 1.906 4.159 4.158 4.159 2.253 0 4.16-1.733 4.16-4.159ZM59.142 124.412a4.159 4.159 0 1 0 0-8.318 4.159 4.159 0 0 0 0 8.318ZM63.301 101.02c0-2.252-1.906-4.158-4.159-4.158-2.252 0-4.158 1.906-4.158 4.158 0 2.253 1.906 4.159 4.158 4.159 2.253 0 4.16-1.906 4.16-4.159ZM63.301 81.787c0-2.253-1.906-4.16-4.159-4.16-2.252 0-4.158 1.907-4.158 4.16 0 2.252 1.906 4.158 4.158 4.158 2.253.174 4.16-1.733 4.16-4.158ZM43.548 196.841c0-2.252-1.906-4.158-4.159-4.158-2.252 0-4.158 1.906-4.158 4.158 0 2.253 1.906 4.159 4.158 4.159 2.253 0 4.159-1.906 4.159-4.159ZM43.548 177.608c0-2.253-1.906-4.159-4.159-4.159-2.252 0-4.158 1.906-4.158 4.159 0 2.252 1.906 4.158 4.158 4.158 2.253 0 4.159-1.732 4.159-4.158ZM43.548 158.547c0-2.252-1.906-4.158-4.159-4.158-2.252 0-4.158 1.906-4.158 4.158 0 2.253 1.906 4.159 4.158 4.159 2.253 0 4.159-1.906 4.159-4.159ZM43.548 139.313c0-2.252-1.906-4.158-4.159-4.158-2.252 0-4.158 1.906-4.158 4.158 0 2.253 1.906 4.159 4.158 4.159 2.253 0 4.159-1.733 4.159-4.159ZM43.548 120.253c0-2.252-1.906-4.158-4.159-4.158-2.252 0-4.158 1.906-4.158 4.158 0 2.253 1.906 4.159 4.158 4.159 2.253 0 4.159-1.906 4.159-4.159ZM43.548 101.02c0-2.252-1.906-4.158-4.159-4.158-2.252 0-4.158 1.906-4.158 4.158 0 2.253 1.906 4.159 4.158 4.159 2.253 0 4.159-1.906 4.159-4.159ZM43.548 81.787c0-2.253-1.906-4.16-4.159-4.16-2.252 0-4.158 1.907-4.158 4.16 0 2.252 1.906 4.158 4.158 4.158 2.253 0 4.159-1.733 4.159-4.158ZM23.621 196.841c0-2.252-1.906-4.158-4.158-4.158-2.253 0-4.159 1.906-4.159 4.158 0 2.253 1.906 4.159 4.159 4.159 2.252 0 4.158-1.906 4.158-4.159ZM23.621 177.608c0-2.253-1.906-4.159-4.158-4.159-2.253 0-4.159 1.906-4.159 4.159 0 2.252 1.906 4.158 4.159 4.158 2.252 0 4.158-1.732 4.158-4.158ZM23.621 158.547c0-2.252-1.906-4.158-4.158-4.158-2.253 0-4.159 1.906-4.159 4.158 0 2.253 1.906 4.159 4.159 4.159 2.252 0 4.158-1.906 4.158-4.159ZM23.621 139.313c0-2.252-1.906-4.158-4.158-4.158-2.253 0-4.159 1.906-4.159 4.158 0 2.253 1.906 4.159 4.159 4.159 2.252 0 4.158-1.733 4.158-4.159ZM23.621 120.253c0-2.252-1.906-4.158-4.158-4.158-2.253 0-4.159 1.906-4.159 4.158 0 2.253 1.906 4.159 4.159 4.159 2.252 0 4.158-1.906 4.158-4.159ZM23.621 101.02c0-2.252-1.906-4.158-4.158-4.158-2.253 0-4.159 1.906-4.159 4.158 0 2.253 1.906 4.159 4.159 4.159 2.252 0 4.158-1.906 4.158-4.159ZM23.621 81.787c0-2.253-1.906-4.16-4.158-4.16-2.253 0-4.159 1.907-4.159 4.16 0 2.252 1.906 4.158 4.159 4.158 2.252.174 4.158-1.733 4.158-4.158Z"/><path fill="#3E54EB" d="M88.6 42.453c0-2.253-1.906-4.16-4.159-4.16-2.252 0-4.159 1.907-4.159 4.16 0 2.252 1.907 4.158 4.16 4.158 2.252 0 4.158-1.906 4.158-4.158ZM88.6 23.22c0-2.253-1.906-4.16-4.159-4.16-2.252 0-4.159 1.907-4.159 4.16 0 2.252 1.907 4.158 4.16 4.158 2.252 0 4.158-1.733 4.158-4.159ZM88.6 4.159C88.6 1.906 86.694 0 84.44 0c-2.252 0-4.159 1.906-4.159 4.159 0 2.252 1.907 4.158 4.16 4.158 2.252 0 4.158-1.906 4.158-4.158ZM68.673 42.453c0-2.253-1.906-4.16-4.159-4.16-2.252 0-4.158 1.907-4.158 4.16 0 2.252 1.906 4.158 4.158 4.158 2.253 0 4.159-1.906 4.159-4.158ZM68.673 23.22c0-2.253-1.906-4.16-4.159-4.16-2.252 0-4.158 1.907-4.158 4.16 0 2.252 1.906 4.158 4.158 4.158 2.253 0 4.159-1.733 4.159-4.159ZM68.673 4.159C68.673 1.906 66.767 0 64.514 0c-2.252 0-4.158 1.906-4.158 4.159 0 2.252 1.906 4.158 4.158 4.158 2.253 0 4.159-1.906 4.159-4.158ZM48.92 42.453c0-2.253-1.906-4.16-4.159-4.16-2.252 0-4.159 1.907-4.159 4.16 0 2.252 1.907 4.158 4.16 4.158 2.252 0 4.158-1.906 4.158-4.158ZM48.92 23.22c0-2.253-1.906-4.16-4.159-4.16-2.252 0-4.159 1.907-4.159 4.16 0 2.252 1.907 4.158 4.16 4.158 2.252 0 4.158-1.733 4.158-4.159ZM48.92 4.159C48.92 1.906 47.014 0 44.76 0c-2.252 0-4.159 1.906-4.159 4.159 0 2.252 1.907 4.158 4.16 4.158 2.252 0 4.158-1.906 4.158-4.158ZM28.993 42.453c0-2.253-1.906-4.16-4.159-4.16-2.252 0-4.158 1.907-4.158 4.16 0 2.252 1.906 4.158 4.159 4.158 2.252 0 4.158-1.906 4.158-4.158ZM28.993 23.22c0-2.253-1.906-4.16-4.159-4.16-2.252 0-4.158 1.907-4.158 4.16 0 2.252 1.906 4.158 4.159 4.158 2.252 0 4.158-1.733 4.158-4.159ZM28.993 4.159C28.993 1.906 27.087 0 24.834 0c-2.252 0-4.158 1.906-4.158 4.159 0 2.252 1.906 4.158 4.159 4.158 2.252 0 4.158-1.906 4.158-4.158ZM9.24 42.453c0-2.253-1.906-4.16-4.159-4.16-2.252 0-4.158 1.907-4.158 4.16 0 2.252 1.906 4.158 4.158 4.158 2.253 0 4.159-1.906 4.159-4.158ZM9.24 23.22c0-2.253-1.906-4.16-4.159-4.16-2.252 0-4.158 1.907-4.158 4.16 0 2.252 1.906 4.158 4.158 4.158 2.253 0 4.159-1.733 4.159-4.159ZM9.24 4.159C9.24 1.906 7.334 0 5.08 0 2.83 0 .923 1.906.923 4.159c0 2.252 1.906 4.158 4.158 4.158 2.253 0 4.159-1.906 4.159-4.158ZM80.11 176.568c0 2.252 1.906 4.158 4.159 4.158 2.252 0 4.158-1.906 4.158-4.158 0-2.253-1.906-4.159-4.159-4.159-2.252 0-4.158 1.733-4.158 4.159ZM84.441 161.493a4.159 4.159 0 1 0 0-8.318 4.159 4.159 0 0 0 0 8.318ZM88.6 138.274c0-2.253-1.906-4.159-4.159-4.159-2.252 0-4.159 1.906-4.159 4.159 0 2.252 1.907 4.158 4.16 4.158 2.252 0 4.158-1.906 4.158-4.158ZM84.441 123.199a4.159 4.159 0 1 0 0-8.318 4.159 4.159 0 0 0 0 8.318ZM84.441 103.966a4.159 4.159 0 1 0 0-8.318 4.159 4.159 0 0 0 0 8.318ZM88.6 80.746c0-2.252-1.906-4.158-4.159-4.158-2.252 0-4.159 1.906-4.159 4.159 0 2.252 1.907 4.158 4.16 4.158 2.252 0 4.158-1.906 4.158-4.159ZM84.441 65.672a4.159 4.159 0 1 0 0-8.318 4.159 4.159 0 0 0 0 8.318ZM68.673 176.568c0-2.253-1.906-4.159-4.159-4.159-2.252 0-4.158 1.906-4.158 4.159 0 2.252 1.906 4.158 4.158 4.158 2.253 0 4.159-1.906 4.159-4.158ZM64.514 161.493a4.159 4.159 0 1 0 0-8.317 4.159 4.159 0 0 0 0 8.317ZM68.673 138.274c0-2.253-1.906-4.159-4.159-4.159-2.252 0-4.158 1.906-4.158 4.159 0 2.252 1.906 4.158 4.158 4.158 2.253 0 4.159-1.906 4.159-4.158ZM64.514 123.199a4.159 4.159 0 1 0 0-8.317 4.159 4.159 0 0 0 0 8.317ZM64.514 103.966a4.159 4.159 0 1 0 0-8.317 4.159 4.159 0 0 0 0 8.317ZM68.673 80.746c0-2.252-1.906-4.158-4.159-4.158-2.252 0-4.158 1.906-4.158 4.159 0 2.252 1.906 4.158 4.158 4.158 2.253 0 4.159-1.906 4.159-4.159ZM64.514 65.672a4.159 4.159 0 1 0 0-8.317 4.159 4.159 0 0 0 0 8.317ZM48.92 176.568c0-2.253-1.906-4.159-4.159-4.159-2.252 0-4.159 1.906-4.159 4.159 0 2.252 1.907 4.158 4.16 4.158 2.252 0 4.158-1.906 4.158-4.158ZM48.92 157.334c0-2.253-1.906-4.159-4.159-4.159-2.252 0-4.159 1.906-4.159 4.159 0 2.252 1.907 4.159 4.16 4.159 2.252 0 4.158-1.733 4.158-4.159ZM48.92 138.274c0-2.253-1.906-4.159-4.159-4.159-2.252 0-4.159 1.906-4.159 4.159 0 2.252 1.907 4.158 4.16 4.158 2.252 0 4.158-1.906 4.158-4.158ZM48.92 119.04c0-2.253-1.906-4.159-4.159-4.159-2.252 0-4.159 1.906-4.159 4.159s1.907 4.159 4.16 4.159c2.252 0 4.158-1.906 4.158-4.159ZM48.92 99.807c0-2.252-1.906-4.159-4.159-4.159-2.252 0-4.159 1.907-4.159 4.159 0 2.253 1.907 4.159 4.16 4.159 2.252.173 4.158-1.733 4.158-4.159ZM48.92 80.746c0-2.252-1.906-4.158-4.159-4.158-2.252 0-4.159 1.906-4.159 4.159 0 2.252 1.907 4.158 4.16 4.158 2.252 0 4.158-1.906 4.158-4.159ZM48.92 61.513c0-2.252-1.906-4.158-4.159-4.158-2.252 0-4.159 1.906-4.159 4.158 0 2.253 1.907 4.159 4.16 4.159 2.252.173 4.158-1.733 4.158-4.159ZM28.993 176.568c0-2.253-1.906-4.159-4.159-4.159-2.252 0-4.158 1.906-4.158 4.159 0 2.252 1.906 4.158 4.159 4.158 2.252 0 4.158-1.906 4.158-4.158ZM28.993 157.334c0-2.253-1.906-4.159-4.159-4.159-2.252 0-4.158 1.906-4.158 4.159 0 2.252 1.906 4.159 4.159 4.159 2.252 0 4.158-1.733 4.158-4.159ZM28.993 138.274c0-2.253-1.906-4.159-4.159-4.159-2.252 0-4.158 1.906-4.158 4.159 0 2.252 1.906 4.158 4.159 4.158 2.252 0 4.158-1.906 4.158-4.158ZM28.993 119.04c0-2.253-1.906-4.159-4.159-4.159-2.252 0-4.158 1.906-4.158 4.159s1.906 4.159 4.159 4.159c2.252 0 4.158-1.906 4.158-4.159ZM28.993 99.807c0-2.252-1.906-4.159-4.159-4.159-2.252 0-4.158 1.907-4.158 4.159 0 2.253 1.906 4.159 4.159 4.159 2.252.173 4.158-1.733 4.158-4.159ZM28.993 80.746c0-2.252-1.906-4.158-4.159-4.158-2.252 0-4.158 1.906-4.158 4.159 0 2.252 1.906 4.158 4.159 4.158 2.252 0 4.158-1.906 4.158-4.159ZM28.993 61.513c0-2.252-1.906-4.158-4.159-4.158-2.252 0-4.158 1.906-4.158 4.158 0 2.253 1.906 4.159 4.159 4.159 2.252.173 4.158-1.733 4.158-4.159ZM9.24 176.568c0-2.253-1.906-4.159-4.159-4.159-2.252 0-4.158 1.906-4.158 4.159 0 2.252 1.906 4.158 4.158 4.158 2.253 0 4.159-1.906 4.159-4.158ZM9.24 157.334c0-2.253-1.906-4.159-4.159-4.159-2.252 0-4.158 1.906-4.158 4.159 0 2.252 1.906 4.159 4.158 4.159 2.253 0 4.159-1.733 4.159-4.159ZM9.24 138.274c0-2.253-1.906-4.159-4.159-4.159-2.252 0-4.158 1.906-4.158 4.159 0 2.252 1.906 4.158 4.158 4.158 2.253 0 4.159-1.906 4.159-4.158ZM9.24 119.04c0-2.253-1.906-4.159-4.159-4.159-2.252 0-4.158 1.906-4.158 4.159s1.906 4.159 4.158 4.159c2.253 0 4.159-1.906 4.159-4.159ZM9.24 99.807c0-2.252-1.906-4.159-4.159-4.159-2.252 0-4.158 1.907-4.158 4.159 0 2.253 1.906 4.159 4.158 4.159 2.253 0 4.159-1.733 4.159-4.159ZM9.24 80.746c0-2.252-1.906-4.158-4.159-4.158-2.252 0-4.158 1.906-4.158 4.159 0 2.252 1.906 4.158 4.158 4.158 2.253 0 4.159-1.906 4.159-4.159ZM9.24 61.513c0-2.252-1.906-4.158-4.159-4.158-2.252 0-4.158 1.906-4.158 4.158 0 2.253 1.906 4.159 4.158 4.159 2.253 0 4.159-1.733 4.159-4.159Z"/></svg>