<svg xmlns="http://www.w3.org/2000/svg" width="248" height="347" fill="none"><path fill="#3E54EB" fill-opacity=".05" d="M173.5 347C77.797 347 0 269.203 0 173.5S77.797 0 173.5 0 347 77.797 347 173.5 269.203 347 173.5 347Zm0-344.777C79.032 2.223 2.223 79.032 2.223 173.5c0 94.468 76.809 171.277 171.277 171.277 94.468 0 171.277-76.809 171.277-171.277 0-94.468-76.809-171.277-171.277-171.277Z"/><path fill="#3E54EB" fill-opacity=".05" d="M173.5 326.131c-84.095 0-152.63-68.413-152.63-152.631 0-84.095 68.411-152.63 152.63-152.63 84.218 0 152.63 68.411 152.63 152.63 0 84.218-68.535 152.631-152.63 152.631Zm0-303.039c-82.86 0-150.408 67.424-150.408 150.408 0 82.86 67.424 150.408 150.408 150.408 82.984 0 150.408-67.424 150.408-150.408 0-82.86-67.548-150.408-150.408-150.408Z"/><path fill="#3E54EB" fill-opacity=".05" d="M173.5 305.261c-72.611 0-131.638-59.15-131.638-131.761 0-72.611 59.027-131.638 131.638-131.638S305.138 100.89 305.138 173.5 246.111 305.261 173.5 305.261Zm0-261.176c-71.376 0-129.415 58.039-129.415 129.415 0 71.376 58.039 129.415 129.415 129.415 71.376 0 129.415-58.039 129.415-129.415 0-71.376-58.039-129.415-129.415-129.415Z"/><path fill="#3E54EB" fill-opacity=".05" d="M173.5 284.268c-61.127 0-110.769-49.642-110.769-110.768S112.373 62.732 173.5 62.732c61.126 0 110.768 49.642 110.768 110.768S234.626 284.268 173.5 284.268Zm0-219.313c-59.892 0-108.546 48.654-108.546 108.545S113.608 282.046 173.5 282.046c59.891 0 108.545-48.655 108.545-108.546 0-59.891-48.654-108.546-108.545-108.546Z"/><path fill="#3E54EB" fill-opacity=".05" d="M173.5 263.399c-49.518 0-89.898-40.257-89.898-89.899s40.257-89.899 89.898-89.899c49.642 0 89.899 40.257 89.899 89.899s-40.38 89.899-89.899 89.899Zm0-177.452c-48.283 0-87.676 39.269-87.676 87.677 0 48.407 39.269 87.676 87.676 87.676 48.408 0 87.677-39.269 87.677-87.676 0-48.408-39.393-87.677-87.677-87.677Z"/><path fill="#3E54EB" fill-opacity=".05" d="M173.501 242.406c-38.035 0-68.907-30.872-68.907-68.906 0-38.034 30.872-68.906 68.907-68.906 38.034 0 68.906 30.872 68.906 68.906 0 38.034-30.872 68.906-68.906 68.906Zm0-135.589c-36.8 0-66.684 29.884-66.684 66.683 0 36.799 29.884 66.683 66.684 66.683 36.799 0 66.683-29.884 66.683-66.683 0-36.799-29.884-66.683-66.683-66.683Z"/><path fill="#3E54EB" fill-opacity=".05" d="M173.5 221.537c-26.426 0-48.037-21.487-48.037-48.037s21.487-48.036 48.037-48.036 48.037 21.486 48.037 48.036-21.611 48.037-48.037 48.037Zm0-93.851c-25.191 0-45.814 20.499-45.814 45.814s20.499 45.814 45.814 45.814 45.814-20.499 45.814-45.814-20.499-45.814-45.814-45.814Z"/><path fill="#3E54EB" fill-opacity=".05" d="M173.5 200.667c-14.942 0-27.167-12.101-27.167-27.167a27.089 27.089 0 0 1 27.167-27.167 27.09 27.09 0 0 1 27.167 27.167c0 15.066-12.225 27.167-27.167 27.167Zm0-51.988c-13.707 0-24.821 11.114-24.821 24.821s11.114 24.821 24.821 24.821 24.821-11.114 24.821-24.821-11.114-24.821-24.821-24.821Z"/></svg>