<svg width="130" height="24" viewBox="0 0 130 24" fill="none" xmlns="http://www.w3.org/2000/svg">
<path d="M10.0328 3.27141C10.8375 1.5762 13.1625 1.5762 13.9672 3.27141L15.3579 6.20118C15.6774 6.87435 16.2951 7.34094 17.0096 7.44888L20.1193 7.91869C21.9187 8.19053 22.6371 10.4895 21.3351 11.8091L19.0849 14.0896C18.5679 14.6136 18.332 15.3685 18.454 16.1084L18.9852 19.3285C19.2926 21.1918 17.4116 22.6126 15.8022 21.7329L13.0208 20.2126C12.3817 19.8633 11.6183 19.8633 10.9792 20.2126L8.19776 21.7329C6.58839 22.6126 4.70742 21.1918 5.01479 19.3286L5.54599 16.1084C5.66804 15.3685 5.43211 14.6136 4.91508 14.0896L2.66488 11.8091C1.36287 10.4895 2.08133 8.19053 3.88066 7.91869L6.99037 7.44888C7.70489 7.34094 8.32257 6.87435 8.64211 6.20118L10.0328 3.27141Z" fill="#F7B34D"/>
<path d="M36.5328 3.27141C37.3375 1.5762 39.6625 1.5762 40.4672 3.27141L41.8579 6.20118C42.1774 6.87435 42.7951 7.34094 43.5096 7.44888L46.6193 7.91869C48.4187 8.19053 49.1371 10.4895 47.8351 11.8091L45.5849 14.0896C45.0679 14.6136 44.832 15.3685 44.954 16.1084L45.4852 19.3285C45.7926 21.1918 43.9116 22.6126 42.3022 21.7329L39.5208 20.2126C38.8817 19.8633 38.1183 19.8633 37.4792 20.2126L34.6978 21.7329C33.0884 22.6126 31.2074 21.1918 31.5148 19.3286L32.046 16.1084C32.168 15.3685 31.9321 14.6136 31.4151 14.0896L29.1649 11.8091C27.8629 10.4895 28.5813 8.19053 30.3807 7.91869L33.4904 7.44888C34.2049 7.34094 34.8226 6.87435 35.1421 6.20118L36.5328 3.27141Z" fill="#F7B34D"/>
<path d="M63.0328 3.27141C63.8375 1.5762 66.1625 1.5762 66.9672 3.27141L68.3579 6.20118C68.6774 6.87435 69.2951 7.34094 70.0096 7.44888L73.1193 7.91869C74.9187 8.19053 75.6371 10.4895 74.3351 11.8091L72.0849 14.0896C71.5679 14.6136 71.332 15.3685 71.454 16.1084L71.9852 19.3285C72.2926 21.1918 70.4116 22.6126 68.8022 21.7329L66.0208 20.2126C65.3817 19.8633 64.6183 19.8633 63.9792 20.2126L61.1978 21.7329C59.5884 22.6126 57.7074 21.1918 58.0148 19.3286L58.546 16.1084C58.668 15.3685 58.4321 14.6136 57.9151 14.0896L55.6649 11.8091C54.3629 10.4895 55.0813 8.19053 56.8807 7.91869L59.9904 7.44888C60.7049 7.34094 61.3226 6.87435 61.6421 6.20118L63.0328 3.27141Z" fill="#F7B34D"/>
<path d="M89.5328 3.27141C90.3375 1.5762 92.6625 1.5762 93.4672 3.27141L94.8579 6.20118C95.1774 6.87435 95.7951 7.34094 96.5096 7.44888L99.6193 7.91869C101.419 8.19053 102.137 10.4895 100.835 11.8091L98.5849 14.0896C98.0679 14.6136 97.832 15.3685 97.954 16.1084L98.4852 19.3285C98.7926 21.1918 96.9116 22.6126 95.3022 21.7329L92.5208 20.2126C91.8817 19.8633 91.1183 19.8633 90.4792 20.2126L87.6978 21.7329C86.0884 22.6126 84.2074 21.1918 84.5148 19.3286L85.046 16.1084C85.168 15.3685 84.9321 14.6136 84.4151 14.0896L82.1649 11.8091C80.8629 10.4895 81.5813 8.19053 83.3807 7.91869L86.4904 7.44888C87.2049 7.34094 87.8226 6.87435 88.1421 6.20118L89.5328 3.27141Z" fill="#F7B34D"/>
<path d="M116.033 3.27141C116.837 1.5762 119.162 1.5762 119.967 3.27141L121.358 6.20118C121.677 6.87435 122.295 7.34094 123.01 7.44888L126.119 7.91869C127.919 8.19053 128.637 10.4895 127.335 11.8091L125.085 14.0896C124.568 14.6136 124.332 15.3685 124.454 16.1084L124.985 19.3285C125.293 21.1918 123.412 22.6126 121.802 21.7329L119.021 20.2126C118.382 19.8633 117.618 19.8633 116.979 20.2126L114.198 21.7329C112.588 22.6126 110.707 21.1918 111.015 19.3286L111.546 16.1084C111.668 15.3685 111.432 14.6136 110.915 14.0896L108.665 11.8091C107.363 10.4895 108.081 8.19053 109.881 7.91869L112.99 7.44888C113.705 7.34094 114.323 6.87435 114.642 6.20118L116.033 3.27141Z" fill="#F7B34D"/>
</svg>
