<svg xmlns="http://www.w3.org/2000/svg" width="123" height="40" fill="none"><path fill="#fff" fill-rule="evenodd" d="M28.37 21.038c.028-.132.057-.265.065-.395.064-.386.041-.75 0-1.1a2.568 2.568 0 0 0-1.012-1.68c-.545-.409-1.205-.672-1.866-.836a10.129 10.129 0 0 0-1.943-.286 15.688 15.688 0 0 0-2.042 0v12.31c1.21-.971 2.364-1.978 3.405-3.025.673-.685 1.323-1.363 1.89-2.071.275-.357.539-.714.767-1.071.24-.392.374-.626.544-1.1.052-.187.1-.374.152-.556.011-.063.025-.127.04-.19ZM9.477 30.836h9.76c.292-.21.584-.427.87-.65v-.45H9.479v1.1Zm0 2h6.758c.579-.35 1.152-.72 1.714-1.1H9.478v1.1Zm0 2.002h3.206a38.87 38.87 0 0 0 2.054-1.1h-5.26v1.1Zm0 1.386c.152-.052.298-.11.45-.17.263-.099.526-.204.79-.315h-1.24v.486Zm-3.751 1.019c.457-.077.93-.164 1.398-.281.363-.088.726-.188 1.089-.304V24.002a40.812 40.812 0 0 0-1.533 2.042 34.949 34.949 0 0 0-2.23 3.615c-.725 1.358-1.427 2.908-1.773 4.547-.163.796-.198 1.667.082 2.241.141.28.328.474.609.62.28.135.65.222 1.059.246.421.023.837-.006 1.299-.07Zm9.262-25.915H8.895v.772h6.094v-.772Zm0-1.38H8.895v.771h6.094v-.772Zm0-1.382H8.895v.771h6.094v-.771Zm0-1.381H8.895v.771h6.094v-.771Zm0-1.382H8.895v.772h6.094v-.772Zm0-1.381H8.895v.772h6.094v-.772Zm0-1.382H8.895v.772h6.094V3.04Zm0-1.381H8.895v.772h6.094v-.772Zm5.12 13.174v-1.1H9.478v1.1h10.63Zm0 14.002v-1.1H9.478v1.1h10.63Zm0-2.001v-1.1H9.478v1.1h10.63Zm0-2.002v-1.1H9.478v1.1h10.63Zm0-3.1H9.478v1.105h10.63v-1.106Zm0-.896v-1.1H9.478v1.1h10.63Zm0-2.001v-1.1H9.478v1.1h10.63ZM9.478 16.834h10.63v-1.1H9.479v1.1Zm19.6 1.1c.282.398.492.866.61 1.351.099.486.152.995.11 1.48-.004.175-.027.341-.051.509-.01.074-.021.148-.03.223-.008.081-.026.16-.044.238-.01.042-.019.083-.027.125l-.04.175-.018.094-.012.041-.006.024c-.003.014.002.002 0 .01a6.704 6.704 0 0 1-.602 1.453c-.234.444-.51.86-.79 1.275-.573.813-1.2 1.597-1.896 2.34a40.852 40.852 0 0 1-4.71 4.348c-.474.38-.965.754-1.463 1.111-.047.041-.1.077-.146.105-.422.311-.854.61-1.288.902-.561.38-1.129.749-1.702 1.1-.08.053-.162.104-.244.155l-.271.166c-.34.2-.685.393-1.03.58-.708.386-1.427.755-2.159 1.1-.684.322-1.38.626-2.083.895l-.123.047c-.068.027-.135.054-.205.076a21.308 21.308 0 0 1-4.897 1.217 8.016 8.016 0 0 1-1.68.023c-.572-.047-1.181-.187-1.755-.52a3.005 3.005 0 0 1-1.287-1.475 4.144 4.144 0 0 1-.263-1.72 7.252 7.252 0 0 1 .24-1.515c.24-.948.603-1.797.994-2.587.393-.79.82-1.52 1.252-2.2.86-1.363 1.78-2.516 2.616-3.505.766-.9 1.504-1.638 2.136-2.24V.825h7.606v12.089h5.752v3.306c.614-.106 1.3-.182 2.048-.205.66-.018 1.369 0 2.118.117.749.123 1.556.333 2.317.83.369.252.743.562 1.024.972Zm72.357-7.71 6.021 15.52c.247.626.526 1.045.839 1.26.313.197.6.303.864.32v.493c-.329-.032-.732-.049-1.209-.049a41.745 41.745 0 0 0-1.432-.025c-.641 0-1.242.009-1.801.025-.559 0-1.012.017-1.357.05v-.494c.839-.033 1.373-.173 1.604-.42.23-.263.181-.814-.148-1.653l-1.515-4.047h-5.967l-1.007 2.616c-.263.658-.42 1.217-.469 1.678-.05.444-.008.798.124 1.06.148.264.386.453.715.568.346.116.773.181 1.283.198v.493c-.46-.032-.946-.049-1.455-.049a41.786 41.786 0 0 0-1.382-.025c-.412 0-.765.009-1.061.025-.28 0-.543.017-.79.05v-.494c.329-.082.666-.272 1.012-.568.345-.312.658-.839.937-1.579l5.799-14.954h.395Zm-1.075 3.12 2.756 7.367h-5.592l2.836-7.366Zm-64.336-2.948a78.077 78.077 0 0 1-1.357-.05v.494c.56.017.979.083 1.258.198a.89.89 0 0 1 .593.592c.098.28.148.724.148 1.332v12.24c0 .592-.05 1.036-.148 1.332a.89.89 0 0 1-.593.592c-.28.1-.699.165-1.258.198v.493c.345-.032.798-.049 1.357-.049a58.09 58.09 0 0 1 1.703-.025c1.02 0 1.891.017 2.615.05.724.016 1.267.024 1.629.024 1.234 0 2.295-.205 3.183-.616.888-.412 1.563-.971 2.023-1.678.478-.724.716-1.555.716-2.493 0-.674-.148-1.316-.444-1.925-.296-.608-.814-1.135-1.555-1.579-.724-.46-1.735-.773-3.035-.937v-.05c.921-.28 1.654-.641 2.196-1.086.56-.46.955-.962 1.185-1.505a4.18 4.18 0 0 0 .37-1.702c0-1.136-.436-2.065-1.308-2.789-.872-.724-2.171-1.086-3.899-1.086-.296 0-.797.009-1.505.025-.707.017-1.448.025-2.22.025-.544 0-1.095-.008-1.654-.025Zm3.282.864c.23-.28.724-.42 1.48-.42 1.234 0 2.114.313 2.64.938.544.609.815 1.522.815 2.739a6.6 6.6 0 0 1-.296 1.999 2.874 2.874 0 0 1-1.086 1.48c-.526.362-1.275.543-2.245.543H38.96v-5.577c0-.855.116-1.422.346-1.702Zm-.346 7.699v6.243c0 .575.05 1.011.148 1.307.1.297.28.494.543.593.264.099.65.148 1.16.148 1.612 0 2.78-.37 3.504-1.11.74-.757 1.11-1.827 1.11-3.209 0-1.266-.345-2.245-1.036-2.936-.674-.69-1.793-1.036-3.356-1.036H38.96Zm17.205-8.119v-.493c-.379.016-.856.033-1.431.05a61.302 61.302 0 0 1-3.504 0 78.04 78.04 0 0 1-1.358-.05v.493c.56.017.98.083 1.259.198a.89.89 0 0 1 .592.592c.099.28.148.724.148 1.332v12.24c0 .592-.05 1.036-.148 1.332a.89.89 0 0 1-.592.592c-.28.1-.7.165-1.259.198v.493c.346-.032.798-.049 1.358-.049a61.652 61.652 0 0 1 3.504 0c.575 0 1.052.017 1.43.05v-.494c-.559-.033-.986-.099-1.282-.198a.89.89 0 0 1-.568-.592c-.099-.296-.148-.74-.148-1.332v-12.24c0-.608.05-1.052.148-1.332a.89.89 0 0 1 .568-.592c.296-.115.723-.181 1.283-.198Zm15.641-.493a37.125 37.125 0 0 0-.148 1.826 50.19 50.19 0 0 0-.025 1.332c0 .395.008.765.025 1.11.016.346.033.65.05.914h-.568c-.115-1.152-.272-2.057-.47-2.715-.197-.674-.542-1.16-1.035-1.456-.494-.296-1.259-.444-2.295-.444h-1.333v14.041c0 .658.058 1.152.173 1.48.131.33.378.552.74.667.362.115.888.189 1.58.222v.493c-.428-.032-.971-.049-1.63-.049a84.38 84.38 0 0 0-4.096 0c-.641 0-1.16.017-1.554.05v-.494c.691-.033 1.217-.107 1.58-.222.361-.115.6-.337.715-.666.132-.33.197-.823.197-1.481v-14.04H62.38c-1.02 0-1.785.147-2.295.444-.494.296-.839.78-1.036 1.455-.198.658-.354 1.563-.47 2.715h-.567c.033-.264.05-.568.05-.913.016-.346.024-.716.024-1.11 0-.313-.016-.757-.05-1.333-.016-.592-.057-1.201-.123-1.826l2.246.05c.822.016 1.645.024 2.468.024h4.465c.823 0 1.646-.008 2.469-.025.822-.016 1.57-.033 2.245-.05Zm23.099.493v-.493l-.79.05c-.28.016-.633.024-1.06.024-.428 0-.889-.008-1.383-.025l-1.455-.05v.494c.69.017 1.209.132 1.554.346.346.197.527.55.543 1.06.033.494-.099 1.194-.395 2.098l-3.038 9.553-3.55-10.984c-.198-.642-.28-1.102-.247-1.382.05-.28.214-.46.493-.543.297-.082.691-.131 1.185-.148v-.493a78.06 78.06 0 0 1-1.357.05c-.56.016-1.16.024-1.802.024a34.6 34.6 0 0 1-1.283-.025 62.066 62.066 0 0 1-1.11-.05v.494c.23.017.477.124.74.321s.502.617.716 1.259l.655 1.944-2.994 9.56-3.608-11.01c-.165-.51-.255-.906-.272-1.185 0-.296.09-.51.272-.642.197-.131.51-.214.938-.247v-.493a57.64 57.64 0 0 1-1.16.05 42.257 42.257 0 0 1-2.937 0 80.22 80.22 0 0 1-1.209-.05v.493c.263.017.56.124.889.321.329.197.6.617.814 1.259l5.231 15.52h.395l3.93-12.719 4.287 12.72h.395l4.664-14.954c.23-.757.534-1.283.913-1.58.378-.312.723-.5 1.036-.567Zm27.383 0v-.493l-.789.05c-.28.016-.634.024-1.062.024-.427 0-.888-.008-1.381-.025l-.666-.022-.79-.027v.493c.691.017 1.225.124 1.604.321.378.181.567.518.567 1.012.017.493-.205 1.193-.666 2.097l-3.147 6.271-4.108-7.875c-.247-.477-.321-.847-.222-1.11.099-.263.304-.444.617-.543a3.616 3.616 0 0 1 1.086-.148v-.518a48.04 48.04 0 0 1-1.728.074h-1.727c-.411 0-.798-.008-1.16-.025a438.18 438.18 0 0 1-1.011-.05v.519c.181 0 .378.082.592.247.23.148.51.526.839 1.135l5.009 9.248v3.707c0 .592-.049 1.036-.148 1.332a.89.89 0 0 1-.592.592c-.28.1-.699.165-1.259.198v.493c.346-.032.798-.049 1.358-.049a61.595 61.595 0 0 1 3.503 0c.576 0 1.053.017 1.432.05v-.494c-.56-.033-.987-.099-1.283-.198a.89.89 0 0 1-.568-.592c-.099-.296-.148-.74-.148-1.332v-4.494l3.874-7.671c.378-.724.724-1.25 1.036-1.58.313-.345.626-.55.938-.617Z" clip-rule="evenodd"/></svg>