<svg xmlns="http://www.w3.org/2000/svg" width="30" height="30" fill="none"><path stroke="#0F1015" stroke-linecap="round" stroke-width="1.5" d="M27.5 15c0-3.355-1.322-6.4-3.472-8.646M27.5 15c0 3.355-1.322 6.4-3.472 8.646M27.5 15h-25M15 27.5c3.549 0 6.752-1.479 9.028-3.854M15 27.5a12.464 12.464 0 0 1-9.028-3.854M15 27.5v-25M2.5 15c0-3.355 1.321-6.4 3.472-8.646M2.5 15c0 3.355 1.321 6.4 3.472 8.646M15 2.5c3.549 0 6.752 1.479 9.028 3.854M15 2.5a12.464 12.464 0 0 0-9.028 3.854m18.056 0A12.458 12.458 0 0 0 20.556 15c0 3.355 1.321 6.4 3.472 8.646M5.972 6.354A12.458 12.458 0 0 1 9.444 15c0 3.355-1.321 6.4-3.472 8.646"/></svg>